<mxfile host="app.diagrams.net" modified="2022-01-16T13:01:00.941Z" agent="5.0 (Windows NT 10.0; Win64; x64) AppleWebKit/537.36 (KHTML, like Gecko) Chrome/97.0.4692.71 Safari/537.36" etag="pP2JOg1vxSrl5BmEj0Dj" version="16.2.7" type="github">
  <diagram id="yM2Ier-1cS3ssxSqRcJ_" name="Page-1">
    <mxGraphModel dx="1038" dy="539" grid="1" gridSize="10" guides="1" tooltips="1" connect="1" arrows="1" fold="1" page="1" pageScale="1" pageWidth="827" pageHeight="1169" math="0" shadow="0">
      <root>
        <mxCell id="0" />
        <mxCell id="1" parent="0" />
        <mxCell id="wurtg704PLI33jeaBWZj-3" value="" style="edgeStyle=orthogonalEdgeStyle;rounded=0;orthogonalLoop=1;jettySize=auto;html=1;" edge="1" parent="1" source="wurtg704PLI33jeaBWZj-1" target="wurtg704PLI33jeaBWZj-2">
          <mxGeometry relative="1" as="geometry" />
        </mxCell>
        <mxCell id="wurtg704PLI33jeaBWZj-1" value="Material App" style="rounded=1;whiteSpace=wrap;html=1;" vertex="1" parent="1">
          <mxGeometry x="354" y="20" width="120" height="60" as="geometry" />
        </mxCell>
        <mxCell id="wurtg704PLI33jeaBWZj-5" value="" style="edgeStyle=orthogonalEdgeStyle;rounded=0;orthogonalLoop=1;jettySize=auto;html=1;" edge="1" parent="1" source="wurtg704PLI33jeaBWZj-2" target="wurtg704PLI33jeaBWZj-4">
          <mxGeometry relative="1" as="geometry">
            <Array as="points">
              <mxPoint x="390" y="230" />
              <mxPoint x="390" y="230" />
            </Array>
          </mxGeometry>
        </mxCell>
        <mxCell id="wurtg704PLI33jeaBWZj-11" value="" style="edgeStyle=orthogonalEdgeStyle;rounded=0;orthogonalLoop=1;jettySize=auto;html=1;" edge="1" parent="1" source="wurtg704PLI33jeaBWZj-2" target="wurtg704PLI33jeaBWZj-10">
          <mxGeometry relative="1" as="geometry" />
        </mxCell>
        <mxCell id="wurtg704PLI33jeaBWZj-13" value="" style="edgeStyle=orthogonalEdgeStyle;rounded=0;orthogonalLoop=1;jettySize=auto;html=1;" edge="1" parent="1" source="wurtg704PLI33jeaBWZj-2" target="wurtg704PLI33jeaBWZj-12">
          <mxGeometry relative="1" as="geometry" />
        </mxCell>
        <mxCell id="wurtg704PLI33jeaBWZj-2" value="Scaffold" style="whiteSpace=wrap;html=1;rounded=1;" vertex="1" parent="1">
          <mxGeometry x="354" y="160" width="120" height="60" as="geometry" />
        </mxCell>
        <mxCell id="wurtg704PLI33jeaBWZj-19" value="" style="edgeStyle=orthogonalEdgeStyle;rounded=0;orthogonalLoop=1;jettySize=auto;html=1;" edge="1" parent="1" source="wurtg704PLI33jeaBWZj-4" target="wurtg704PLI33jeaBWZj-18">
          <mxGeometry relative="1" as="geometry" />
        </mxCell>
        <mxCell id="wurtg704PLI33jeaBWZj-23" value="" style="edgeStyle=orthogonalEdgeStyle;rounded=0;orthogonalLoop=1;jettySize=auto;html=1;" edge="1" parent="1" source="wurtg704PLI33jeaBWZj-4" target="wurtg704PLI33jeaBWZj-22">
          <mxGeometry relative="1" as="geometry" />
        </mxCell>
        <mxCell id="wurtg704PLI33jeaBWZj-4" value="AppBar" style="whiteSpace=wrap;html=1;rounded=1;" vertex="1" parent="1">
          <mxGeometry x="330" y="300" width="120" height="60" as="geometry" />
        </mxCell>
        <mxCell id="wurtg704PLI33jeaBWZj-10" value="Color" style="whiteSpace=wrap;html=1;rounded=1;" vertex="1" parent="1">
          <mxGeometry x="170" y="240" width="120" height="60" as="geometry" />
        </mxCell>
        <mxCell id="wurtg704PLI33jeaBWZj-15" value="" style="edgeStyle=orthogonalEdgeStyle;rounded=0;orthogonalLoop=1;jettySize=auto;html=1;" edge="1" parent="1" source="wurtg704PLI33jeaBWZj-12" target="wurtg704PLI33jeaBWZj-14">
          <mxGeometry relative="1" as="geometry" />
        </mxCell>
        <mxCell id="wurtg704PLI33jeaBWZj-12" value="Center" style="whiteSpace=wrap;html=1;rounded=1;" vertex="1" parent="1">
          <mxGeometry x="490" y="250" width="120" height="60" as="geometry" />
        </mxCell>
        <mxCell id="wurtg704PLI33jeaBWZj-17" value="" style="edgeStyle=orthogonalEdgeStyle;rounded=0;orthogonalLoop=1;jettySize=auto;html=1;" edge="1" parent="1" source="wurtg704PLI33jeaBWZj-14" target="wurtg704PLI33jeaBWZj-16">
          <mxGeometry relative="1" as="geometry" />
        </mxCell>
        <mxCell id="wurtg704PLI33jeaBWZj-14" value="Image" style="whiteSpace=wrap;html=1;rounded=1;" vertex="1" parent="1">
          <mxGeometry x="490" y="360" width="120" height="60" as="geometry" />
        </mxCell>
        <mxCell id="wurtg704PLI33jeaBWZj-16" value="NetworkImage" style="whiteSpace=wrap;html=1;rounded=1;" vertex="1" parent="1">
          <mxGeometry x="490" y="470" width="120" height="60" as="geometry" />
        </mxCell>
        <mxCell id="wurtg704PLI33jeaBWZj-18" value="Color" style="whiteSpace=wrap;html=1;rounded=1;" vertex="1" parent="1">
          <mxGeometry x="330" y="470" width="120" height="60" as="geometry" />
        </mxCell>
        <mxCell id="wurtg704PLI33jeaBWZj-25" value="" style="edgeStyle=orthogonalEdgeStyle;rounded=0;orthogonalLoop=1;jettySize=auto;html=1;" edge="1" parent="1" source="wurtg704PLI33jeaBWZj-22" target="wurtg704PLI33jeaBWZj-24">
          <mxGeometry relative="1" as="geometry" />
        </mxCell>
        <mxCell id="wurtg704PLI33jeaBWZj-22" value="Center" style="whiteSpace=wrap;html=1;rounded=1;" vertex="1" parent="1">
          <mxGeometry x="140" y="470" width="120" height="60" as="geometry" />
        </mxCell>
        <mxCell id="wurtg704PLI33jeaBWZj-24" value="Text" style="whiteSpace=wrap;html=1;rounded=1;" vertex="1" parent="1">
          <mxGeometry x="140" y="610" width="120" height="60" as="geometry" />
        </mxCell>
      </root>
    </mxGraphModel>
  </diagram>
</mxfile>
